<svg version="1.0" xmlns="http://www.w3.org/2000/svg"
 width="861.000000pt" height="861.000000pt" viewBox="0 0 861.000000 861.000000"
 preserveAspectRatio="xMidYMid meet">

<g transform="translate(0.000000,861.000000) scale(0.100000,-0.100000)"
fill="#5029ff" stroke="none">
<path d="M4195 8510 c-59 -12 -142 -47 -189 -80 -63 -44 -1762 -1750 -1781
-1789 -108 -215 -69 -464 99 -634 175 -178 446 -205 662 -65 27 17 214 196
416 397 l368 366 2 -2020 3 -2020 22 -65 c55 -162 169 -276 331 -332 96 -33
258 -33 355 0 129 45 230 130 288 244 63 124 59 -21 59 2187 l0 2015 383 -380
c272 -269 399 -389 441 -414 258 -151 595 -42 733 237 78 155 80 302 7 453
-35 73 -64 103 -908 947 -949 949 -908 912 -1058 948 -67 16 -168 18 -233 5z"/>
<path d="M1015 3289 c-201 -24 -376 -170 -440 -366 -15 -47 -16 -104 -12 -555
4 -495 4 -505 29 -618 94 -423 279 -768 572 -1068 337 -345 750 -554 1241
-629 112 -17 232 -18 1900 -18 1985 0 1862 -4 2150 70 830 213 1458 919 1580
1777 11 78 15 211 15 545 0 438 0 443 -23 506 -33 91 -70 150 -132 211 -212
208 -563 195 -764 -30 -26 -30 -60 -79 -75 -108 -52 -104 -56 -133 -56 -504 0
-188 -5 -386 -11 -439 -53 -476 -400 -853 -875 -950 -84 -17 -190 -18 -1809
-18 -1615 0 -1725 1 -1808 18 -217 44 -393 135 -546 281 -184 176 -296 394
-330 640 -6 43 -11 234 -11 431 0 218 -4 374 -11 407 -55 266 -312 449 -584
417z"/>
</g>
</svg>
